HIERARCHY
ROOT Hips
{
    OFFSET   0.000000   0.000000   0.000000
    CHANNELS 6 Xposition Yposition Zposition Zrotation Xrotation Yrotation
    JOINT Chest
    {
        OFFSET   0.000000   8.007230   0.000000
        CHANNELS 3 Zrotation Xrotation Yrotation
        JOINT Chest2
        {
            OFFSET   0.000000  22.077100   0.000000
            CHANNELS 3 Zrotation Xrotation Yrotation
            JOINT Neck
            {
                OFFSET   0.000000  23.255100   0.000000
                CHANNELS 3 Zrotation Xrotation Yrotation
                JOINT Head
                {
                    OFFSET   0.000000  14.370100   1.956600
                    CHANNELS 3 Zrotation Xrotation Yrotation
                    End Site
                    {
                        OFFSET   0.000000  19.566000   0.000000
                    }
                }
            }
            JOINT LeftCollar
            {
                OFFSET   3.911900  19.017000  -0.467063
                CHANNELS 3 Zrotation Xrotation Yrotation
                JOINT LeftShoulder
                {
                    OFFSET  10.383700   0.000000   0.000000
                    CHANNELS 3 Zrotation Xrotation Yrotation
                    JOINT LeftElbow
                    {
                        OFFSET  26.662100   0.001193   0.000980
                        CHANNELS 3 Zrotation Xrotation Yrotation
                        JOINT LeftWrist
                        {
                            OFFSET  28.869000  -0.000059  -0.000082
                            CHANNELS 3 Zrotation Xrotation Yrotation
                            JOINT LeftFinger0
                            {
                                OFFSET   2.044650  -2.323450   3.252850
                                CHANNELS 3 Zrotation Xrotation Yrotation
                                JOINT LeftFinger01
                                {
                                    OFFSET   3.088130   0.000000   0.000000
                                    CHANNELS 3 Zrotation Xrotation Yrotation
                                    JOINT LeftFinger02
                                    {
                                        OFFSET   2.639460   0.000000   0.000000
                                        CHANNELS 3 Zrotation Xrotation Yrotation
                                        End Site
                                        {
                                            OFFSET   2.582190   0.000000   0.000000
                                        }
                                    }
                                }
                            }
                            JOINT LeftFinger1
                            {
                                OFFSET   8.364480   0.000000   3.252850
                                CHANNELS 3 Zrotation Xrotation Yrotation
                                JOINT LeftFinger11
                                {
                                    OFFSET   4.646930   0.000000   0.000000
                                    CHANNELS 3 Zrotation Xrotation Yrotation
                                    JOINT LeftFinger12
                                    {
                                        OFFSET   2.323470   0.000000   0.000000
                                        CHANNELS 3 Zrotation Xrotation Yrotation
                                        End Site
                                        {
                                            OFFSET   2.273050   0.000000   0.000000
                                        }
                                    }
                                }
                            }
                            JOINT LeftFinger2
                            {
                                OFFSET   8.364490   0.000016   1.078090
                                CHANNELS 3 Zrotation Xrotation Yrotation
                                JOINT LeftFinger21
                                {
                                    OFFSET   5.111610   0.000000   0.000000
                                    CHANNELS 3 Zrotation Xrotation Yrotation
                                    JOINT LeftFinger22
                                    {
                                        OFFSET   2.788150   0.000016   0.000000
                                        CHANNELS 3 Zrotation Xrotation Yrotation
                                        End Site
                                        {
                                            OFFSET   2.727660   0.000000   0.000000
                                        }
                                    }
                                }
                            }
                            JOINT LeftFinger3
                            {
                                OFFSET   7.899780   0.000015  -1.078090
                                CHANNELS 3 Zrotation Xrotation Yrotation
                                JOINT LeftFinger31
                                {
                                    OFFSET   4.646930   0.000000   0.000000
                                    CHANNELS 3 Zrotation Xrotation Yrotation
                                    JOINT LeftFinger32
                                    {
                                        OFFSET   2.323470   0.000000   0.000000
                                        CHANNELS 3 Zrotation Xrotation Yrotation
                                        End Site
                                        {
                                            OFFSET   2.273050   0.000000   0.000000
                                        }
                                    }
                                }
                            }
                            JOINT LeftFinger4
                            {
                                OFFSET   7.435090   0.000000  -3.252850
                                CHANNELS 3 Zrotation Xrotation Yrotation
                                JOINT LeftFinger41
                                {
                                    OFFSET   3.717550   0.000000   0.000000
                                    CHANNELS 3 Zrotation Xrotation Yrotation
                                    JOINT LeftFinger42
                                    {
                                        OFFSET   1.858770   0.000000   0.000000
                                        CHANNELS 3 Zrotation Xrotation Yrotation
                                        End Site
                                        {
                                            OFFSET   1.818440   0.000000   0.000000
                                        }
                                    }
                                }
                            }
                        }
                    }
                }
            }
            JOINT RightCollar
            {
                OFFSET  -3.911910  19.017000  -0.467062
                CHANNELS 3 Zrotation Xrotation Yrotation
                JOINT RightShoulder
                {
                    OFFSET -10.383700   0.000014   0.000000
                    CHANNELS 3 Zrotation Xrotation Yrotation
                    JOINT RightElbow
                    {
                        OFFSET -26.662100   0.001225   0.001091
                        CHANNELS 3 Zrotation Xrotation Yrotation
                        JOINT RightWrist
                        {
                            OFFSET -28.869000  -0.000020  -0.000085
                            CHANNELS 3 Zrotation Xrotation Yrotation
                            JOINT RightFinger0
                            {
                                OFFSET  -2.044650  -2.323490   3.252850
                                CHANNELS 3 Zrotation Xrotation Yrotation
                                JOINT RightFinger01
                                {
                                    OFFSET  -3.088130   0.000000   0.000000
                                    CHANNELS 3 Zrotation Xrotation Yrotation
                                    JOINT RightFinger02
                                    {
                                        OFFSET  -2.639460   0.000000   0.000000
                                        CHANNELS 3 Zrotation Xrotation Yrotation
                                        End Site
                                        {
                                            OFFSET  -2.582190   0.000000   0.000000
                                        }
                                    }
                                }
                            }
                            JOINT RightFinger1
                            {
                                OFFSET  -8.364480   0.000000   3.252850
                                CHANNELS 3 Zrotation Xrotation Yrotation
                                JOINT RightFinger11
                                {
                                    OFFSET  -4.646930   0.000000   0.000000
                                    CHANNELS 3 Zrotation Xrotation Yrotation
                                    JOINT RightFinger12
                                    {
                                        OFFSET  -2.323470   0.000000   0.000000
                                        CHANNELS 3 Zrotation Xrotation Yrotation
                                        End Site
                                        {
                                            OFFSET  -2.273050   0.000000   0.000000
                                        }
                                    }
                                }
                            }
                            JOINT RightFinger2
                            {
                                OFFSET  -8.364480   0.000000   1.078090
                                CHANNELS 3 Zrotation Xrotation Yrotation
                                JOINT RightFinger21
                                {
                                    OFFSET  -5.111620   0.000000   0.000000
                                    CHANNELS 3 Zrotation Xrotation Yrotation
                                    JOINT RightFinger22
                                    {
                                        OFFSET  -2.788160   0.000000   0.000000
                                        CHANNELS 3 Zrotation Xrotation Yrotation
                                        End Site
                                        {
                                            OFFSET  -2.727660   0.000000   0.000000
                                        }
                                    }
                                }
                            }
                            JOINT RightFinger3
                            {
                                OFFSET  -7.899780   0.000000  -1.078090
                                CHANNELS 3 Zrotation Xrotation Yrotation
                                JOINT RightFinger31
                                {
                                    OFFSET  -4.646930   0.000000   0.000000
                                    CHANNELS 3 Zrotation Xrotation Yrotation
                                    JOINT RightFinger32
                                    {
                                        OFFSET  -2.323470   0.000000   0.000000
                                        CHANNELS 3 Zrotation Xrotation Yrotation
                                        End Site
                                        {
                                            OFFSET  -2.273050   0.000000   0.000000
                                        }
                                    }
                                }
                            }
                            JOINT RightFinger4
                            {
                                OFFSET  -7.435090   0.000000  -3.252850
                                CHANNELS 3 Zrotation Xrotation Yrotation
                                JOINT RightFinger41
                                {
                                    OFFSET  -3.717550   0.000000   0.000000
                                    CHANNELS 3 Zrotation Xrotation Yrotation
                                    JOINT RightFinger42
                                    {
                                        OFFSET  -1.858760   0.000000   0.000000
                                        CHANNELS 3 Zrotation Xrotation Yrotation
                                        End Site
                                        {
                                            OFFSET  -1.818440   0.000000   0.000000
                                        }
                                    }
                                }
                            }
                        }
                    }
                }
            }
        }
    }
    JOINT LeftHip
    {
        OFFSET   9.783030   0.000000   0.000000
        CHANNELS 3 Zrotation Xrotation Yrotation
        JOINT LeftKnee
        {
            OFFSET   0.000063 -41.789100   0.000608
            CHANNELS 3 Zrotation Xrotation Yrotation
            JOINT LeftAnkle
            {
                OFFSET   0.000048 -41.133200  -0.000184
                CHANNELS 3 Zrotation Xrotation Yrotation
                JOINT LeftToe
                {
                    OFFSET   0.000000  -6.358960  14.674500
                    CHANNELS 3 Zrotation Xrotation Yrotation
                    End Site
                    {
                        OFFSET   0.000000   0.000000   3.913200
                    }
                }
            }
        }
    }
    JOINT RightHip
    {
        OFFSET  -9.783030   0.000000   0.000000
        CHANNELS 3 Zrotation Xrotation Yrotation
        JOINT RightKnee
        {
            OFFSET   0.000071 -41.789100   0.001239
            CHANNELS 3 Zrotation Xrotation Yrotation
            JOINT RightAnkle
            {
                OFFSET   0.000037 -41.133200  -0.000166
                CHANNELS 3 Zrotation Xrotation Yrotation
                JOINT RightToe
                {
                    OFFSET   0.000000  -6.358960  14.674500
                    CHANNELS 3 Zrotation Xrotation Yrotation
                    End Site
                    {
                        OFFSET   0.000000   0.000000   3.913200
                    }
                }
            }
        }
    }
}
MOTION
Frames: 6
Frame Time:   0.016667
  0.793743  89.597500  -0.259403  -3.587660  -8.149680  -5.855680   1.007010   4.938930   0.575439   1.975070   9.887010   1.069290   0.850632  -0.236966  -0.003748   1.387340  -0.480390   2.501170  -6.255180  -0.885859   2.027360 -73.390900  19.090300  -2.376380  -1.538400  -3.633730 -16.767300  18.353500 -13.464200   9.148400  39.976300  36.093600 -63.226200 -34.082500   0.005589   0.003861 -12.050700   0.006322   0.005718 -33.283300   5.963740  -8.998660 -27.615900  -0.000238  -0.001477 -19.348400   0.001205   0.012597 -28.669900  -1.917180   3.501900 -39.560500   0.000731   0.000238 -26.341100   0.000381   0.000715 -28.721200  -1.920520   3.500070 -41.232700  -0.007727  -0.003602 -27.461000   0.003039  -0.006556 -33.784000  -2.222510   3.316670 -50.781400  -0.006488  -0.003503 -33.813600   0.003440  -0.002555  11.061600   1.692100   7.620920  66.361700   8.542940  -5.594300  -2.132880  -6.835560  12.708200 -10.953800 -10.482300   4.318840 -39.279300  25.339100  65.050000  13.700200   0.006439  -0.006772   1.850130   0.008923  -0.010754  31.566400   8.644780  13.747000  26.681300   0.005529  -0.005025  18.675500   0.001524  -0.008735  28.459700   1.422120   2.595600  36.071900   0.000254  -0.005659  24.023900   0.004809  -0.005073  28.629000   1.430100   2.591530  38.286500   0.002726  -0.002484  25.498800  -0.000357  -0.002330  38.830300  -4.155590  -5.144690  58.525600   0.001948  -0.002851  38.978000  -0.000879  -0.011401   2.285410   9.867850   3.444240   0.885776   0.085524   5.997810  -1.448900  -2.920010   3.188080  -0.000000   0.000000  -0.000000   3.665150   6.610130  -0.814330  -2.802390   5.240940  -6.605590   1.249910  -4.053470   1.415750  -0.000000   0.000000  -0.000000
  0.793942  89.597500  -0.259412  -3.586750  -8.156560  -5.839580   1.007050   4.941770   0.576582   1.975020   9.892710   1.071550   0.845225  -0.219981  -0.003756   1.381240  -0.445892   2.501110  -6.252390  -0.889307   2.022210 -73.388300  19.107900  -2.381500  -1.534320  -3.642120 -16.771400  18.369300 -13.482300   9.162100  39.974700  36.093500 -63.225900 -34.090500   0.005584   0.003861 -12.050700   0.006324   0.005854 -33.289200   5.963960  -8.987980 -27.620600  -0.000239  -0.001477 -19.348500   0.001201   0.012598 -28.668900  -1.925730   3.517520 -39.563700   0.000731   0.000239 -26.346000   0.000381   0.000712 -28.720100  -1.929080   3.515680 -41.237800  -0.007728  -0.003602 -27.464400   0.003040  -0.006555 -33.786300  -2.232480   3.331430 -50.782200  -0.006488  -0.003502 -33.816900   0.003440  -0.002555  11.085000   1.643310   7.631400  66.344000   8.556770  -5.636040  -2.157820  -6.852500  12.768200 -10.932900 -10.483400   4.338880 -39.285000  25.326100  65.025900  13.682400   0.006430  -0.006763   1.841250   0.008922  -0.010748  31.560100   8.647280  13.754000  26.676800   0.005524  -0.005019  18.673000   0.001524  -0.008738  28.458600   1.422530   2.600200  36.054600   0.000254  -0.005659  24.012300   0.004811  -0.005071  28.628700   1.430510   2.596070  38.296600   0.002725  -0.002481  25.505500  -0.000363  -0.002328  38.810800  -4.125360  -5.110980  58.492400   0.001946  -0.002826  38.955900  -0.000879  -0.011394   2.284720   9.878550   3.444610   0.885675   0.076159   5.997890  -1.450040  -2.916240   3.175630   0.000000   0.000000   0.000000   3.668380   6.619080  -0.815609  -2.804620   5.241030  -6.605560   1.248690  -4.058030   1.400730  -0.000000   0.000000   0.000000
  0.794140  89.597500  -0.259425  -3.586250  -8.170760  -5.813290   1.007110   4.948680   0.578532   1.974930   9.906560   1.075360   0.837410  -0.192991  -0.003764   1.372340  -0.391121   2.500720  -6.247150  -0.897442   2.013640 -73.383000  19.142100  -2.393070  -1.528770  -3.660840 -16.775700  18.387100 -13.504200   9.181560  39.966000  36.093400 -63.225700 -34.101400   0.005571   0.003862 -12.050700   0.006327   0.006043 -33.298500   5.964200  -8.977300 -27.628200  -0.000240  -0.001479 -19.348500   0.001195   0.012602 -28.667800  -1.934280   3.533140 -39.572400   0.000731   0.000239 -26.355200   0.000381   0.000705 -28.719000  -1.937640   3.531300 -41.246400  -0.007730  -0.003603 -27.470100   0.003041  -0.006553 -33.791000  -2.242440   3.346180 -50.784800  -0.006489  -0.003502 -33.822700   0.003440  -0.002556  11.124400   1.559990   7.649250  66.311100   8.580820  -5.698570  -2.199250  -6.890900  12.872700 -10.900600 -10.492900   4.370220 -39.294500  25.301000  64.981100  13.645100   0.006410  -0.006737   1.822570   0.008913  -0.010742  31.548100   8.653830  13.770200  26.668700   0.005509  -0.005003  18.668000   0.001524  -0.008744  28.456600   1.422940   2.606790  36.030800   0.000255  -0.005657  23.996500   0.004816  -0.005066  28.628400   1.430910   2.602560  38.321400   0.002720  -0.002475  25.522000  -0.000375  -0.002323  38.780100  -4.080520  -5.061280  58.440700   0.001940  -0.002765  38.921500  -0.000877  -0.011375   2.283590   9.896520   3.445050   0.885574   0.066794   5.997970  -1.453310  -2.912480   3.156200   0.000000   0.000000   0.000000   3.675980   6.636020  -0.819632  -2.810530   5.241660  -6.605540   1.246170  -4.065960   1.376150   0.000000   0.000000   0.000000
  0.794107  89.597500  -0.259433  -3.588100  -8.188100  -5.792630   1.007180   4.958900   0.580164   1.974860   9.927050   1.078470   0.834255  -0.174346  -0.003752   1.368690  -0.353427   2.496540  -6.241300  -0.909647   2.006750 -73.376000  19.181200  -2.409230  -1.526890  -3.688760 -16.771600  18.386800 -13.508600   9.190120  39.964700  36.107700 -63.246900 -34.104700   0.005551   0.003839 -12.052500   0.006334   0.006120 -33.305900   5.964250  -8.978700 -27.634100  -0.000240  -0.001480 -19.347900   0.001192   0.012611 -28.668000  -1.933740   3.529690 -39.588600   0.000731   0.000238 -26.366600   0.000382   0.000694 -28.719200  -1.937090   3.527860 -41.253900  -0.007731  -0.003603 -27.475100   0.003042  -0.006549 -33.797800  -2.240310   3.342900 -50.790700  -0.006491  -0.003502 -33.829200   0.003441  -0.002558  11.158400   1.488150   7.665500  66.280400   8.600950  -5.739830  -2.233540  -6.943680  12.970700 -10.883500 -10.539500   4.386860 -39.304800  25.264200  64.923700  13.599700   0.006385  -0.006693   1.799850   0.008893  -0.010753  31.534200   8.664690  13.793900  26.659900   0.005488  -0.004983  18.661900   0.001530  -0.008755  28.454600   1.419840   2.608970  36.022500   0.000248  -0.005650  23.991000   0.004827  -0.005061  28.629600   1.427840   2.604670  38.356000   0.002712  -0.002467  25.545000  -0.000391  -0.002316  38.754400  -4.057060  -5.036610  58.399900   0.001934  -0.002673  38.894300  -0.000876  -0.011345   2.286400   9.911350   3.445170   0.885683   0.070958   5.995780  -1.458850  -2.913440   3.142700   0.000000   0.000000   0.000000   3.687560   6.654450  -0.829294  -2.820330   5.245710  -6.606070   1.243010  -4.073100   1.356820  -0.000000   0.000000   0.000000
  0.793872  89.597600  -0.259437  -3.590910  -8.208280  -5.774170   1.007220   4.971460   0.581893   1.974730   9.952240   1.081740   0.831373  -0.156919  -0.003734   1.364780  -0.318205   2.488070  -6.235640  -0.923360   2.000060 -73.368200  19.222600  -2.428010  -1.526420  -3.716350 -16.765600  18.384000 -13.509100   9.195010  39.972500  36.126100 -63.275000 -34.105300   0.005524   0.003797 -12.054800   0.006344   0.006144 -33.312000   5.964250  -8.980970 -27.639000  -0.000240  -0.001481 -19.347200   0.001187   0.012621 -28.668200  -1.932900   3.526230 -39.603900   0.000731   0.000238 -26.376200   0.000384   0.000680 -28.719400  -1.936220   3.524430 -41.260300  -0.007732  -0.003604 -27.479400   0.003044  -0.006545 -33.802100  -2.238180   3.339610 -50.795000  -0.006494  -0.003503 -33.833200   0.003443  -0.002562  11.189000   1.415860   7.679880  66.239100   8.624750  -5.760520  -2.264770  -7.007210  13.063900 -10.857800 -10.618900   4.410240 -39.310000  25.242000  64.884200  13.543600   0.006354  -0.006634   1.771810   0.008867  -0.010764  31.520500   8.677190  13.820100  26.651500   0.005461  -0.004956  18.656000   0.001537  -0.008768  28.452500   1.416740   2.611520  36.020600   0.000238  -0.005642  23.989700   0.004841  -0.005055  28.632500   1.424760   2.607150  38.404500   0.002702  -0.002457  25.577400  -0.000412  -0.002307  38.741400  -4.038760  -5.016720  58.377600   0.001925  -0.002565  38.879500  -0.000874  -0.011306   2.292910   9.925980   3.445090   0.885709   0.081733   5.990810  -1.466140  -2.917520   3.132140   0.000000   0.000000  -0.000000   3.700120   6.674160  -0.836285  -2.830830   5.253260  -6.607030   1.239540  -4.080500   1.339170   0.000000   0.000000   0.000000
  0.790797  89.597600  -0.259403  -3.593900  -8.229480  -5.760290   1.007200   4.985030   0.583726   1.974450   9.979390   1.085230   0.826308  -0.140022  -0.003726   1.357130  -0.283881   2.477750  -6.232730  -0.934411   1.994380 -73.360800  19.258000  -2.447320  -1.526680  -3.731080 -16.763800  18.382000 -13.500600   9.196380  39.975200  36.130200 -63.283500 -34.105300   0.005490   0.003743 -12.055300   0.006355   0.004804 -33.314700   5.964190  -8.983120 -27.641200  -0.000246  -0.001481 -19.347700   0.001177   0.012633 -28.668200  -1.932210   3.526500 -39.608600   0.000732   0.000237 -26.379100   0.000384   0.000662 -28.719400  -1.935510   3.524700 -41.263100  -0.007734  -0.003605 -27.481300   0.003045  -0.006540 -33.801700  -2.238370   3.339860 -50.794800  -0.006496  -0.003504 -33.832600   0.003444  -0.002566  11.208400   1.350830   7.688200  66.179500   8.658520  -5.741040  -2.289760  -7.076980  13.130900 -10.805200 -10.721800   4.453510 -39.305700  25.250000  64.888600  13.484800   0.006323  -0.006561   1.742380   0.008835  -0.010752  31.513700   8.686930  13.836900  26.648700   0.005431  -0.004920  18.654100   0.001539  -0.008784  28.450100   1.417680   2.614470  36.035100   0.000230  -0.005636  23.999400   0.004858  -0.005047  28.636900   1.425740   2.610060  38.484700   0.002691  -0.002448  25.630800  -0.000440  -0.002296  38.750900  -4.025050  -4.997340  58.390300   0.001914  -0.002449  38.888000  -0.000873  -0.011259   2.301660   9.935700   3.442770   0.885265   0.104008   5.983010  -1.475530  -2.929110   3.127030   0.000000   0.000000   0.000000   3.710610   6.692630  -0.836384  -2.838660   5.262430  -6.608090   1.236480  -4.087800   1.325690   0.000000   0.000000   0.000000
